<?xml version="1.0" encoding="UTF-8"?>
<svg id="Layer_1" xmlns="http://www.w3.org/2000/svg" version="1.1" viewBox="0 0 3164 1615">
  <!-- Generator: Adobe Illustrator 30.1.0, SVG Export Plug-In . SVG Version: 2.1.1 Build 136)  -->
  <defs>
    <style>
      .st0 {
        fill: #231f20;
      }
    </style>
  </defs>
  <path class="st0" d="M290.16,3.12c-10.39,0-15.6,6.24-15.6,18.72,2.08,37.44,10.39,72.7,24.96,106.08l84.24,221.52c6.24,18.72,9.36,38.38,9.36,59.28-2.08,8.33-7.27,11.45-15.6,9.36-16.63-10.39-32.14-23.93-46.8-40.56l-78-96.72c-6.24-4.15-9.36-3.12-9.36,3.12,10.39,31.2,15.6,63.34,15.6,96.72,0,10.39-4.15,16.63-12.48,18.72-22.87,0-38.72-9.48-62.4-18.72l-96.72-46.8c-14.57-8.33-30.17-10.39-46.8-6.24-6.24,4.15-7.27,12.48-3.12,24.96,14.57,33.38,35.26,64.58,62.4,93.6,31.2,37.44,57.49,76.69,84.63,116.31l30.81,61.53c4.15,4.15,7.27,3.12,9.36-3.12,0-31.2-8.33-61.46-24.96-90.48-28.08-53.04-45.24-66.54-85.8-113.34,3.36,5.39-48.57-53.26-43.76-57.18,9.53-7.76,45.88,11.29,45.88,11.29l133.6,59.38c10.39,2.08,22.97,4.46,31.2-3.12,6.84-6.31,6.24-17.69,6.24-28.08l-.89-27.6,25.85,30.72c20.81,20.81,45.86,34.32,74.88,40.56,12.48,4.15,21.84,1.04,28.08-9.36,6.24-12.48,7.27-25.99,3.12-40.56-10.39-47.74-27.05-96.72-49.92-146.64l-65.52-168.48c-8.33-16.63-6.61-32.88-6.24-49.92,2.08-6.24,3.3-4.82,11.63-2.73l78.85,46.41,18.72,9.36c4.15-4.15,2.16-7.6-3.19-12.59-27.05-27.05-58.28-45.75-93.53-62.29l-18.72-3.12ZM50.35,691.88c-13.46.15-32.78.32-42.21,5.24-5.2,2.71-6.06,10.09-1.91,14.24,22.87,16.63,47.74,28.08,74.88,34.32l84.24,28.08c12.48,4.15,17.69,10.39,15.6,18.72l-46.8,34.32s-10.04,7.14-8.75,10.32c4.2,4.84,6.82,2.59,11.87,2.16,27.05-4.15,50.86-15.6,71.76-34.32,10.39-8.33,10.39-18.72,0-31.2-22.87-22.87-50.86-35.26-84.24-37.44-27.05-2.08-34.06-3.67-58.77-9.56-10.84-2.58-41.32-13.56-41.32-20.18,0-4.71,72.56,1.29,77.15-.12,4.02-2.32,4.23-8.62-2.01-10.71,0,0-39.23-3.99-49.49-3.88ZM589.68,46.8c-4.15,6.24-5.21,11.45-3.12,15.6,8.33,29.11,14.57,59.28,18.72,90.48,0,4.15-1.9,8.53-6.24,6.24-16.63-14.57-35.26-27.05-56.16-37.44-8.33,0-11.45,2.08-9.36,6.24l43.68,37.44c10.39,10.39,18.95,14.23,31.83,15.46,12.48-2.08,17.29-12.35,16.59-25.24-2.29-24.88-4.74-41.08-17.22-68.23,16.63,22.87,51.81,55.52,56.16,56.16,4.46,1.41,18.72,0,18.72,0,12.48-9.36,6.24-24.96,6.24-37.44l-1.37-24.14,29.45,11.66c4.15-2.08,3.12-5.21-3.12-9.36,0,0-22.88-17.22-33.27-19.36-4.5-.93-6.57-1.77-7.29,6.88-.9,10.91-3.12,43.68-3.12,43.68-2.08,4.15-5.21,5.21-9.36,3.12-14.57-10.39-27.05-22.87-37.44-37.44l-31.2-34.32h-3.12Z"/>
</svg>